<svg version="1.1" viewBox="0.0 0.0 960.0 720.0" fill="none" stroke="none" stroke-linecap="square" stroke-miterlimit="10" xmlns:xlink="http://www.w3.org/1999/xlink" xmlns="http://www.w3.org/2000/svg"><clipPath id="p.0"><path d="m0 0l960.0 0l0 720.0l-960.0 0l0 -720.0z" clip-rule="nonzero"/></clipPath><g clip-path="url(#p.0)"><path fill="#000000" fill-opacity="0.0" d="m0 0l960.0 0l0 720.0l-960.0 0z" fill-rule="evenodd"/><path fill="#000000" fill-opacity="0.0" d="m306.11414 154.86876c3.5525818 10.657761 -15.361328 17.897476 -17.207336 28.979004c-4.564209 27.398361 7.8779907 56.97229 -0.9055176 83.32283" fill-rule="evenodd"/><path stroke="#000000" stroke-width="1.0" stroke-linejoin="round" stroke-linecap="butt" d="m306.11414 154.86876c3.5525818 10.657761 -15.361328 17.897476 -17.207336 28.979004c-4.564209 27.398361 7.8779907 56.97229 -0.9055176 83.32283" fill-rule="evenodd"/><path fill="#000000" fill-opacity="0.0" d="m288.90552 195.62245c8.285522 -5.5236816 27.573914 -2.6112366 28.981628 7.2467194c1.5196533 10.642075 -14.609558 19.92389 -25.359589 19.92389" fill-rule="evenodd"/><path stroke="#000000" stroke-width="1.0" stroke-linejoin="round" stroke-linecap="butt" d="m288.90552 195.62245c8.285522 -5.5236816 27.573914 -2.6112366 28.981628 7.2467194c1.5196533 10.642075 -14.609558 19.92389 -25.359589 19.92389" fill-rule="evenodd"/><path fill="#000000" fill-opacity="0.0" d="m293.43307 235.4727c8.024902 -2.6736755 23.700714 -9.199829 25.359589 -0.9055023c1.5403748 7.7019196 4.648407 17.992004 -0.9055176 23.545929c-5.7678223 5.7678223 -16.29712 0.9055176 -24.454071 0.9055176" fill-rule="evenodd"/><path stroke="#000000" stroke-width="1.0" stroke-linejoin="round" stroke-linecap="butt" d="m293.43307 235.4727c8.024902 -2.6736755 23.700714 -9.199829 25.359589 -0.9055023c1.5403748 7.7019196 4.648407 17.992004 -0.9055176 23.545929c-5.7678223 5.7678223 -16.29712 0.9055176 -24.454071 0.9055176" fill-rule="evenodd"/><path fill="#000000" fill-opacity="0.0" d="m344.15222 150.33858c20.181396 33.655167 14.48819 77.58972 14.48819 116.832016" fill-rule="evenodd"/><path stroke="#000000" stroke-width="1.0" stroke-linejoin="round" stroke-linecap="butt" d="m344.15222 150.33858c20.181396 33.655167 14.48819 77.58972 14.48819 116.832016" fill-rule="evenodd"/><path fill="#000000" fill-opacity="0.0" d="m343.2438 226.4147c0 -13.286041 -5.047333 -27.971268 0.9081421 -39.84778" fill-rule="evenodd"/><path stroke="#000000" stroke-width="1.0" stroke-linejoin="round" stroke-linecap="butt" d="m343.2438 226.4147c0 -13.286041 -5.047333 -27.971268 0.9081421 -39.84778" fill-rule="evenodd"/><path fill="#000000" fill-opacity="0.0" d="m345.05774 187.47128c13.313416 0 39.84778 -10.596893 39.84778 2.7165222" fill-rule="evenodd"/><path stroke="#000000" stroke-width="1.0" stroke-linejoin="round" stroke-linecap="butt" d="m345.05774 187.47128c13.313416 0 39.84778 -10.596893 39.84778 2.7165222" fill-rule="evenodd"/><path fill="#000000" fill-opacity="0.0" d="m385.05774 187.93176c-1.5041504 11.97847 3.8955994 25.112427 -0.8635254 36.20735" fill-rule="evenodd"/><path stroke="#000000" stroke-width="1.0" stroke-linejoin="round" stroke-linecap="butt" d="m385.05774 187.93176c-1.5041504 11.97847 3.8955994 25.112427 -0.8635254 36.20735" fill-rule="evenodd"/><path fill="#000000" fill-opacity="0.0" d="m384.1942 225.86089c-2.2652893 -1.5090485 -4.395508 -3.2458954 -6.3201904 -5.1705933" fill-rule="evenodd"/><path stroke="#000000" stroke-width="1.0" stroke-linejoin="round" stroke-linecap="butt" d="m384.1942 225.86089c-2.2652893 -1.5090485 -4.395508 -3.2458954 -6.3201904 -5.1705933" fill-rule="evenodd"/><path fill="#000000" d="m229.82939 218.04462c0 -53.92386 45.97014 -97.637794 102.67717 -97.637794c27.23169 0 53.348022 10.286812 72.60373 28.59745c19.255707 18.310638 30.073425 43.145187 30.073425 69.040344c0 53.92386 -45.970123 97.63779 -102.677155 97.63779c-56.70703 0 -102.67717 -43.71393 -102.67717 -97.63779zm18.104004 0c0 43.925293 37.8647 79.53378 84.573166 79.53378c46.708466 0 84.57315 -35.60849 84.57315 -79.53378c0 -43.925293 -37.864685 -79.5338 -84.57315 -79.5338c-46.708466 0 -84.573166 35.608505 -84.573166 79.5338z" fill-rule="evenodd"/><path stroke="#000000" stroke-width="1.0" stroke-linejoin="round" stroke-linecap="butt" d="m229.82939 218.04462c0 -53.92386 45.97014 -97.637794 102.67717 -97.637794c27.23169 0 53.348022 10.286812 72.60373 28.59745c19.255707 18.310638 30.073425 43.145187 30.073425 69.040344c0 53.92386 -45.970123 97.63779 -102.677155 97.63779c-56.70703 0 -102.67717 -43.71393 -102.67717 -97.63779zm18.104004 0c0 43.925293 37.8647 79.53378 84.573166 79.53378c46.708466 0 84.57315 -35.60849 84.57315 -79.53378c0 -43.925293 -37.864685 -79.5338 -84.57315 -79.5338c-46.708466 0 -84.573166 35.608505 -84.573166 79.5338z" fill-rule="evenodd"/></g></svg>